<mxfile host="65bd71144e">
    <diagram name="Automotive Security POC Architecture" id="1">
        <mxGraphModel dx="996" dy="582" grid="1" gridSize="10" guides="1" tooltips="1" connect="1" arrows="1" fold="1" page="1" pageScale="1" pageWidth="850" pageHeight="1100" math="0" shadow="0">
            <root>
                <mxCell id="0"/>
                <mxCell id="1" parent="0"/>
                <mxCell id="2" value="RTL-SDR V4 Dongle" style="shape=ellipse;whiteSpace=wrap;html=1;fillColor=#fa6800;strokeColor=#C73500;fontColor=#000000;" parent="1" vertex="1">
                    <mxGeometry y="210" width="120" height="60" as="geometry"/>
                </mxCell>
                <mxCell id="3" value="Computer Backend" style="shape=swimlane;whiteSpace=wrap;html=1;fillColor=#76608a;strokeColor=#432D57;fontColor=#ffffff;" parent="1" vertex="1">
                    <mxGeometry x="200" y="60" width="500" height="350" as="geometry"/>
                </mxCell>
                <mxCell id="4" value="rtl_tcp_server.py&lt;br&gt;(IQ Stream)" style="shape=rectangle;whiteSpace=wrap;html=1;fillColor=#f0a30a;strokeColor=#BD7000;fontColor=#000000;" parent="3" vertex="1">
                    <mxGeometry x="20" y="155" width="120" height="50" as="geometry"/>
                </mxCell>
                <mxCell id="5" value="signal_bridge.py&lt;br&gt;(Signal Processing)" style="shape=rectangle;whiteSpace=wrap;html=1;fillColor=#6d8764;strokeColor=#3A5431;fontColor=#ffffff;" parent="3" vertex="1">
                    <mxGeometry x="180" y="155" width="140" height="50" as="geometry"/>
                </mxCell>
                <mxCell id="6" value="TCP Event Server&lt;br&gt;(8888)" style="shape=rectangle;whiteSpace=wrap;html=1;fillColor=#d80073;strokeColor=#A50040;fontColor=#ffffff;" parent="3" vertex="1">
                    <mxGeometry x="360" y="155" width="120" height="50" as="geometry"/>
                </mxCell>
                <mxCell id="7" value="cli_dashboard.py&lt;br&gt;(Rich UI)" style="shape=rectangle;whiteSpace=wrap;html=1;fillColor=#60a917;strokeColor=#2D7600;fontColor=#ffffff;" parent="3" vertex="1">
                    <mxGeometry x="350" y="50" width="140" height="50" as="geometry"/>
                </mxCell>
                <mxCell id="14" style="edgeStyle=orthogonalEdgeStyle;rounded=0;orthogonalLoop=1;jettySize=auto;html=1;endArrow=block;endFill=1;strokeColor=#d6b656" edge="1" parent="3">
                    <mxGeometry relative="1" as="geometry">
                        <mxPoint x="320" y="179.7999999999999" as="sourcePoint"/>
                        <mxPoint x="360" y="179.7999999999999" as="targetPoint"/>
                        <Array as="points">
                            <mxPoint x="360" y="179.8"/>
                            <mxPoint x="360" y="179.8"/>
                        </Array>
                    </mxGeometry>
                </mxCell>
                <mxCell id="8" value="Raspberry Pi Pico W&lt;br&gt;(main.py)" style="shape=rectangle;whiteSpace=wrap;html=1;fillColor=#e51400;strokeColor=#B20000;fontColor=#ffffff;" parent="1" vertex="1">
                    <mxGeometry x="790" y="210" width="140" height="60" as="geometry"/>
                </mxCell>
                <mxCell id="9" style="edgeStyle=orthogonalEdgeStyle;rounded=0;orthogonalLoop=1;jettySize=auto;html=1;endArrow=block;endFill=1;strokeColor=#6c8ebf" parent="1" source="2" target="4" edge="1">
                    <mxGeometry relative="1" as="geometry"/>
                </mxCell>
                <mxCell id="10" style="edgeStyle=orthogonalEdgeStyle;rounded=0;orthogonalLoop=1;jettySize=auto;html=1;endArrow=block;endFill=1;strokeColor=#d6b656" parent="1" source="4" target="5" edge="1">
                    <mxGeometry relative="1" as="geometry"/>
                </mxCell>
                <mxCell id="12" style="edgeStyle=orthogonalEdgeStyle;rounded=0;orthogonalLoop=1;jettySize=auto;html=1;endArrow=block;endFill=1;strokeColor=#666666" parent="1" source="6" target="7" edge="1">
                    <mxGeometry relative="1" as="geometry"/>
                </mxCell>
                <mxCell id="13" style="edgeStyle=orthogonalEdgeStyle;rounded=0;orthogonalLoop=1;jettySize=auto;html=1;endArrow=block;endFill=1;strokeColor=#388e3c" parent="1" source="6" target="8" edge="1">
                    <mxGeometry relative="1" as="geometry"/>
                </mxCell>
            </root>
        </mxGraphModel>
    </diagram>
</mxfile>